<svg width="20" height="21" viewBox="0 0 20 21" fill="none" xmlns="http://www.w3.org/2000/svg">
<path d="M16.375 20.084H7.625C5.448 20.084 4.25 18.886 4.25 16.709V7.95898C4.25 5.78198 5.448 4.58398 7.625 4.58398H16.375C18.552 4.58398 19.75 5.78198 19.75 7.95898V16.709C19.75 18.886 18.552 20.084 16.375 20.084ZM7.625 6.08398C6.293 6.08398 5.75 6.62698 5.75 7.95898V16.709C5.75 18.041 6.293 18.584 7.625 18.584H16.375C17.707 18.584 18.25 18.041 18.25 16.709V7.95898C18.25 6.62698 17.707 6.08398 16.375 6.08398H7.625ZM1.75 13.334V3.95898C1.75 2.62698 2.293 2.08398 3.625 2.08398H13C13.414 2.08398 13.75 1.74798 13.75 1.33398C13.75 0.919984 13.414 0.583984 13 0.583984H3.625C1.448 0.583984 0.25 1.78198 0.25 3.95898V13.334C0.25 13.748 0.586 14.084 1 14.084C1.414 14.084 1.75 13.748 1.75 13.334Z" fill="#25314C"/>
</svg>
