<svg width="24" height="24" viewBox="0 0 24 24" fill="none" xmlns="http://www.w3.org/2000/svg">
<path d="M13.5 9.75003C13.5 9.55112 13.421 9.36035 13.2803 9.2197C13.1397 9.07905 12.9489 9.00003 12.75 9.00003H6.75C6.55109 9.00003 6.36032 9.07905 6.21967 9.2197C6.07902 9.36035 6 9.55112 6 9.75003C6 9.94894 6.07902 10.1397 6.21967 10.2804C6.36032 10.421 6.55109 10.5 6.75 10.5H12.75C12.9489 10.5 13.1397 10.421 13.2803 10.2804C13.421 10.1397 13.5 9.94894 13.5 9.75003ZM12.5 12.75C12.5 12.5511 12.421 12.3604 12.2803 12.2197C12.1397 12.079 11.9489 12 11.75 12H6.75C6.55109 12 6.36032 12.079 6.21967 12.2197C6.07902 12.3604 6 12.5511 6 12.75C6 12.9489 6.07902 13.1397 6.21967 13.2804C6.36032 13.421 6.55109 13.5 6.75 13.5H11.75C11.9489 13.5 12.1397 13.421 12.2803 13.2804C12.421 13.1397 12.5 12.9489 12.5 12.75ZM12.75 15C12.9489 15 13.1397 15.079 13.2803 15.2197C13.421 15.3604 13.5 15.5511 13.5 15.75C13.5 15.9489 13.421 16.1397 13.2803 16.2804C13.1397 16.421 12.9489 16.5 12.75 16.5H6.75C6.55109 16.5 6.36032 16.421 6.21967 16.2804C6.07902 16.1397 6 15.9489 6 15.75C6 15.5511 6.07902 15.3604 6.21967 15.2197C6.36032 15.079 6.55109 15 6.75 15H12.75Z" fill="white"/>
<path fill-rule="evenodd" clip-rule="evenodd" d="M6.00781 21.746H19.0078C19.7372 21.746 20.4366 21.4563 20.9524 20.9405C21.4681 20.4248 21.7578 19.7253 21.7578 18.996V13.496C21.7578 13.2971 21.6788 13.1063 21.5381 12.9657C21.3975 12.825 21.2067 12.746 21.0078 12.746H17.7578V4.939C17.7578 3.516 16.1488 2.688 14.9908 3.515L14.8158 3.64C14.4326 3.91203 13.9741 4.05783 13.5042 4.05711C13.0342 4.05639 12.5762 3.90919 12.1938 3.636C11.5554 3.18167 10.7914 2.93753 10.0078 2.93753C9.22427 2.93753 8.46019 3.18167 7.82181 3.636C7.43943 3.90919 6.9814 4.05639 6.51145 4.05711C6.04151 4.05783 5.58302 3.91203 5.19981 3.64L5.02481 3.515C3.86681 2.688 2.25781 3.515 2.25781 4.939V17.996C2.25781 18.9906 2.6529 19.9444 3.35616 20.6477C4.05942 21.3509 5.01325 21.746 6.00781 21.746ZM8.69381 4.856C9.07776 4.58344 9.53696 4.43703 10.0078 4.43703C10.4787 4.43703 10.9379 4.58344 11.3218 4.856C11.9585 5.31112 12.7214 5.55621 13.504 5.55711C14.2867 5.55801 15.0501 5.31466 15.6878 4.861L15.8628 4.736C15.9002 4.70941 15.9441 4.6936 15.9898 4.6903C16.0356 4.687 16.0813 4.69634 16.1221 4.7173C16.1629 4.73825 16.1971 4.77002 16.221 4.80912C16.245 4.84822 16.2577 4.89315 16.2578 4.939V18.996C16.2578 19.446 16.3658 19.871 16.5578 20.246H6.00781C5.41108 20.246 4.83878 20.0089 4.41682 19.587C3.99487 19.165 3.75781 18.5927 3.75781 17.996V4.939C3.75793 4.89315 3.77066 4.84822 3.79459 4.80912C3.81853 4.77002 3.85276 4.73825 3.89354 4.7173C3.93432 4.69634 3.98007 4.687 4.0258 4.6903C4.07152 4.6936 4.11547 4.70941 4.15281 4.736L4.32781 4.861C4.96556 5.31466 5.72897 5.55801 6.51161 5.55711C7.29425 5.55621 8.05711 5.31112 8.69381 4.856ZM17.7578 18.996V14.246H20.2578V18.996C20.2578 19.3275 20.1261 19.6455 19.8917 19.8799C19.6573 20.1143 19.3393 20.246 19.0078 20.246C18.6763 20.246 18.3584 20.1143 18.1239 19.8799C17.8895 19.6455 17.7578 19.3275 17.7578 18.996Z" fill="white"/>
</svg>
