<svg width="49" height="49" viewBox="0 0 49 49" fill="none" xmlns="http://www.w3.org/2000/svg">
<mask id="path-1-outside-1_1480_62" maskUnits="userSpaceOnUse" x="1.26562" y="10.2422" width="45" height="29" fill="black">
<rect fill="white" x="1.26562" y="10.2422" width="45" height="29"/>
<path d="M12.0541 11.2422H13.8274L15.6716 11.455L17.0902 11.8806L18.5798 12.5899L19.36 13.0864L20.2821 13.7957L21.4879 15.0015L22.3391 16.1364L23.1903 17.4841L24.1124 19.1155L24.9636 20.5342L26.0275 22.3784L27.0206 24.0807L27.9427 25.854L28.652 26.9889L29.2903 27.8401L29.8578 28.4784L30.7799 29.1877L31.7729 29.7552L32.9078 30.2517L34.0427 30.6064L35.1776 30.8192L36.1707 30.8901L37.5893 30.6773L38.7951 30.3226L40.4265 29.5424L41.5614 28.7622L42.4126 27.9819L43.051 27.2726H45.1789L44.9661 27.911L44.4696 28.8331L43.7603 29.6843L43.1928 30.1808L42.4835 30.8192L41.2068 31.5994L40.0009 32.1668L38.5114 32.6634L37.2346 32.9471L36.5253 33.018H35.3904L33.8299 32.8052L32.3404 32.4506L30.9218 31.8831L29.7869 31.2447L28.8648 30.5354L27.9427 29.6843L27.1624 28.7622L26.3112 27.5563L25.6729 26.4924L24.6798 24.79L23.9705 23.5133L22.9775 21.8109L22.0554 20.1795L20.9205 18.1225L20.0693 16.7748L19.2891 15.9236L18.5088 15.2143L17.5158 14.5759L16.5228 14.0794L15.246 13.6538L14.182 13.4411L13.6146 13.3701H12.3378L10.9192 13.5829L9.85525 13.9376L8.86221 14.505L7.86918 15.2143L7.15987 15.8527L6.80521 16.1364L6.16683 16.9167L5.52845 17.9806L4.961 19.3283L4.60635 20.5342L4.46449 21.4563V22.8039L4.67728 24.1516L5.10287 25.5703L5.81218 26.9179L6.59242 27.8401L7.2308 28.5494L8.22383 29.3296L8.93314 29.7552L9.78431 30.1808L10.8483 30.5354L11.6995 30.6773L12.4797 30.7482H13.7565L14.9623 30.6064L16.0972 30.3226L17.1611 29.8971L18.2251 29.2587L19.2181 28.4075L19.9984 27.5563L20.8496 26.2796L21.3461 25.2865L21.5589 24.79L21.8426 24.9319L22.481 25.7121L23.1903 26.4924L23.0484 26.847L22.6228 27.6273L21.8426 28.7622L20.9914 29.7552L20.0693 30.6064L18.9344 31.3866L17.4449 32.1668L16.239 32.5924L14.8204 32.8762L13.4727 33.018H12.5506L11.4157 32.8762L9.78431 32.5215L8.36569 31.9541L7.30173 31.3866L6.45056 30.8192L5.45752 30.0389L4.46449 29.1168L4.25169 29.0459V37.6995L4.10983 37.8413H2.40749L2.26562 37.5576V20.7469L2.54935 19.3283L3.18773 17.4841L3.75518 16.4911L4.60635 15.2853L5.1738 14.5759H5.31566L5.45752 14.2922L5.67031 14.2213V14.0794L6.45056 13.4411L7.51452 12.7317L8.86221 12.0224L9.99711 11.5968L11.3448 11.3131L12.0541 11.2422Z"/>
</mask>
<path d="M12.0541 11.2422H13.8274L15.6716 11.455L17.0902 11.8806L18.5798 12.5899L19.36 13.0864L20.2821 13.7957L21.4879 15.0015L22.3391 16.1364L23.1903 17.4841L24.1124 19.1155L24.9636 20.5342L26.0275 22.3784L27.0206 24.0807L27.9427 25.854L28.652 26.9889L29.2903 27.8401L29.8578 28.4784L30.7799 29.1877L31.7729 29.7552L32.9078 30.2517L34.0427 30.6064L35.1776 30.8192L36.1707 30.8901L37.5893 30.6773L38.7951 30.3226L40.4265 29.5424L41.5614 28.7622L42.4126 27.9819L43.051 27.2726H45.1789L44.9661 27.911L44.4696 28.8331L43.7603 29.6843L43.1928 30.1808L42.4835 30.8192L41.2068 31.5994L40.0009 32.1668L38.5114 32.6634L37.2346 32.9471L36.5253 33.018H35.3904L33.8299 32.8052L32.3404 32.4506L30.9218 31.8831L29.7869 31.2447L28.8648 30.5354L27.9427 29.6843L27.1624 28.7622L26.3112 27.5563L25.6729 26.4924L24.6798 24.79L23.9705 23.5133L22.9775 21.8109L22.0554 20.1795L20.9205 18.1225L20.0693 16.7748L19.2891 15.9236L18.5088 15.2143L17.5158 14.5759L16.5228 14.0794L15.246 13.6538L14.182 13.4411L13.6146 13.3701H12.3378L10.9192 13.5829L9.85525 13.9376L8.86221 14.505L7.86918 15.2143L7.15987 15.8527L6.80521 16.1364L6.16683 16.9167L5.52845 17.9806L4.961 19.3283L4.60635 20.5342L4.46449 21.4563V22.8039L4.67728 24.1516L5.10287 25.5703L5.81218 26.9179L6.59242 27.8401L7.2308 28.5494L8.22383 29.3296L8.93314 29.7552L9.78431 30.1808L10.8483 30.5354L11.6995 30.6773L12.4797 30.7482H13.7565L14.9623 30.6064L16.0972 30.3226L17.1611 29.8971L18.2251 29.2587L19.2181 28.4075L19.9984 27.5563L20.8496 26.2796L21.3461 25.2865L21.5589 24.79L21.8426 24.9319L22.481 25.7121L23.1903 26.4924L23.0484 26.847L22.6228 27.6273L21.8426 28.7622L20.9914 29.7552L20.0693 30.6064L18.9344 31.3866L17.4449 32.1668L16.239 32.5924L14.8204 32.8762L13.4727 33.018H12.5506L11.4157 32.8762L9.78431 32.5215L8.36569 31.9541L7.30173 31.3866L6.45056 30.8192L5.45752 30.0389L4.46449 29.1168L4.25169 29.0459V37.6995L4.10983 37.8413H2.40749L2.26562 37.5576V20.7469L2.54935 19.3283L3.18773 17.4841L3.75518 16.4911L4.60635 15.2853L5.1738 14.5759H5.31566L5.45752 14.2922L5.67031 14.2213V14.0794L6.45056 13.4411L7.51452 12.7317L8.86221 12.0224L9.99711 11.5968L11.3448 11.3131L12.0541 11.2422Z" fill="#FEFEFE"/>
<path d="M12.0541 11.2422H13.8274L15.6716 11.455L17.0902 11.8806L18.5798 12.5899L19.36 13.0864L20.2821 13.7957L21.4879 15.0015L22.3391 16.1364L23.1903 17.4841L24.1124 19.1155L24.9636 20.5342L26.0275 22.3784L27.0206 24.0807L27.9427 25.854L28.652 26.9889L29.2903 27.8401L29.8578 28.4784L30.7799 29.1877L31.7729 29.7552L32.9078 30.2517L34.0427 30.6064L35.1776 30.8192L36.1707 30.8901L37.5893 30.6773L38.7951 30.3226L40.4265 29.5424L41.5614 28.7622L42.4126 27.9819L43.051 27.2726H45.1789L44.9661 27.911L44.4696 28.8331L43.7603 29.6843L43.1928 30.1808L42.4835 30.8192L41.2068 31.5994L40.0009 32.1668L38.5114 32.6634L37.2346 32.9471L36.5253 33.018H35.3904L33.8299 32.8052L32.3404 32.4506L30.9218 31.8831L29.7869 31.2447L28.8648 30.5354L27.9427 29.6843L27.1624 28.7622L26.3112 27.5563L25.6729 26.4924L24.6798 24.79L23.9705 23.5133L22.9775 21.8109L22.0554 20.1795L20.9205 18.1225L20.0693 16.7748L19.2891 15.9236L18.5088 15.2143L17.5158 14.5759L16.5228 14.0794L15.246 13.6538L14.182 13.4411L13.6146 13.3701H12.3378L10.9192 13.5829L9.85525 13.9376L8.86221 14.505L7.86918 15.2143L7.15987 15.8527L6.80521 16.1364L6.16683 16.9167L5.52845 17.9806L4.961 19.3283L4.60635 20.5342L4.46449 21.4563V22.8039L4.67728 24.1516L5.10287 25.5703L5.81218 26.9179L6.59242 27.8401L7.2308 28.5494L8.22383 29.3296L8.93314 29.7552L9.78431 30.1808L10.8483 30.5354L11.6995 30.6773L12.4797 30.7482H13.7565L14.9623 30.6064L16.0972 30.3226L17.1611 29.8971L18.2251 29.2587L19.2181 28.4075L19.9984 27.5563L20.8496 26.2796L21.3461 25.2865L21.5589 24.79L21.8426 24.9319L22.481 25.7121L23.1903 26.4924L23.0484 26.847L22.6228 27.6273L21.8426 28.7622L20.9914 29.7552L20.0693 30.6064L18.9344 31.3866L17.4449 32.1668L16.239 32.5924L14.8204 32.8762L13.4727 33.018H12.5506L11.4157 32.8762L9.78431 32.5215L8.36569 31.9541L7.30173 31.3866L6.45056 30.8192L5.45752 30.0389L4.46449 29.1168L4.25169 29.0459V37.6995L4.10983 37.8413H2.40749L2.26562 37.5576V20.7469L2.54935 19.3283L3.18773 17.4841L3.75518 16.4911L4.60635 15.2853L5.1738 14.5759H5.31566L5.45752 14.2922L5.67031 14.2213V14.0794L6.45056 13.4411L7.51452 12.7317L8.86221 12.0224L9.99711 11.5968L11.3448 11.3131L12.0541 11.2422Z" stroke="#FEFEFE" stroke-width="0.91875" mask="url(#path-1-outside-1_1480_62)"/>
<path d="M35.1826 10.9422H35.1738L35.165 10.9429L34.2429 11.0138L34.2311 11.0147L34.2194 11.0168L33.4392 11.1587L33.4289 11.1606L33.4188 11.1634L32.142 11.518L32.1257 11.5226L32.1102 11.5294L30.8334 12.0969L30.8206 12.1026L30.8086 12.1098L29.3899 12.961L29.3756 12.9696L29.3627 12.9802L28.5824 13.6186L28.5823 13.6185L28.5766 13.6235L28.0092 14.12L27.9983 14.1295L27.9887 14.1402L27.4213 14.7786L27.4138 14.787L27.4072 14.7961L26.8398 15.5764L26.8338 15.5846L26.8286 15.5933L26.1902 16.6573L26.1826 16.6699L26.1767 16.6834L25.6802 17.8183L25.6346 17.9225L25.6898 18.0219L26.0445 18.6603L26.0601 18.6884L26.0829 18.7111L26.934 19.5623L26.9604 19.5886L26.9937 19.6053L27.2775 19.7472L27.4976 19.8572L27.5922 19.6301L27.9419 18.7908L28.6366 17.5403L29.3264 16.6436L29.8801 16.0899L30.787 15.2528L31.6776 14.6362L32.7755 14.1559L34.3733 13.739L35.6209 13.6004H36.3732L37.4004 13.7374L39.0666 14.2928L40.1741 14.8465L41.2123 15.5387L41.8976 16.1555L42.6581 17.0542L43.2788 18.0197L43.8323 19.2651L44.2427 20.7307H35.3245H35.0948V20.9604V22.9464V23.1347L35.2794 23.1717L35.6341 23.2426L35.6564 23.247H35.6791H46.6025H46.6976L46.7649 23.1798L46.8358 23.1088L46.8938 23.0509L46.902 22.9693L46.9729 22.26L46.974 22.2486V22.2371V21.3859V21.3764L46.9732 21.3669L46.9023 20.5157L46.9012 20.5026L46.8986 20.4897L46.6149 19.0711L46.6114 19.0535L46.6052 19.0367L46.1087 17.6891L46.1034 17.6746L46.0962 17.661L45.4578 16.4552L45.4533 16.4466L45.448 16.4384L44.8096 15.4454L44.8015 15.4327L44.7918 15.4212L44.0115 14.4991L44.0028 14.4888L43.9929 14.4796L42.9289 13.4865L42.9199 13.4781L42.91 13.4707L41.7751 12.6195L41.7605 12.6086L41.7443 12.6L40.3966 11.8907L40.3816 11.8828L40.3655 11.8772L38.9469 11.3807L38.9318 11.3754L38.916 11.3722L37.4974 11.0885L37.4859 11.0862L37.4742 11.0851L35.9846 10.9432L35.9737 10.9422H35.9628H35.1826Z" fill="#FEFEFE" stroke="#FEFEFE" stroke-width="0.459375"/>
</svg>
