<svg width="40" height="40" viewBox="0 0 40 40" fill="none" xmlns="http://www.w3.org/2000/svg">
<g clip-path="url(#clip0_1_946)">
<path d="M20 40C31.0457 40 40 31.0457 40 20C40 8.9543 31.0457 0 20 0C8.9543 0 0 8.9543 0 20C0 31.0457 8.9543 40 20 40Z" fill="#2CA01C"/>
<path d="M4.82542 19.9912C4.82702 24.5128 8.47342 28.1896 12.995 28.2296H14.1518V25.2072H12.995C10.1918 25.972 7.30062 24.3193 6.53742 21.516C6.53102 21.4936 6.52622 21.4712 6.51982 21.4488C5.73422 18.6088 7.37902 15.6664 10.2094 14.8488H10.787C11.5118 14.6904 12.2622 14.6904 12.987 14.8488H15.7966V30.8952C15.7822 32.5928 17.147 33.9816 18.8446 33.9976V11.6712H13.0126C8.45902 11.6952 4.78862 15.4056 4.81262 19.9592V19.9608L4.82542 19.9912ZM27.0254 11.6744H25.8686V14.8568H27.0254C29.8222 14.0936 32.707 15.7416 33.4702 18.5368C33.4766 18.5576 33.4814 18.58 33.4878 18.6008C34.2686 21.4312 32.6286 24.3624 29.8094 25.1784H29.2318C28.507 25.3368 27.7566 25.3368 27.0318 25.1784H24.2222V9.13365C24.2366 7.43605 22.8718 6.04725 21.1742 6.03125V28.3896H27.0062C31.5998 28.3176 35.2654 24.5368 35.195 19.9432C35.1246 15.4504 31.5006 11.8248 27.0062 11.7544L27.0254 11.6744Z" fill="white"/>
</g>
<defs>
<clipPath id="clip0_1_946">
<rect width="40" height="40" fill="white"/>
</clipPath>
</defs>
</svg>
